<svg xmlns="http://www.w3.org/2000/svg" xmlns:xlink="http://www.w3.org/1999/xlink" width="48.567" height="44.716" viewBox="0 0 48.567 44.716"><defs><style>.a{opacity:0.7;}.b{fill:#a6ddff;}.c{fill:url(#a);}.d{fill:#353535;}.e,.g{fill:#546d96;}.f{fill:#8fa4bc;}.g{opacity:0.56;}.h{fill:#ff6903;}.i{fill:#d85700;}.j{fill:#d8d8d8;}.j,.k{opacity:0.4;}.k{fill:#fff;}.l{fill:url(#b);}.m{fill:#e5c0ae;}.n{fill:#002e93;}.o{fill:url(#c);}.p{fill:#0543ce;}.q{fill:#4f1109;}.r{fill:#282626;}.s{fill:#76c4f4;}.t{fill:#c2ecff;}</style><linearGradient id="a" x1="0.789" y1="0.159" x2="0.034" y2="1.404" gradientUnits="objectBoundingBox"><stop offset="0" stop-color="#fff"/><stop offset="0.67" stop-color="#fff"/></linearGradient><linearGradient id="b" x1="0.509" y1="2.738" x2="0.494" y2="-1.603" gradientUnits="objectBoundingBox"><stop offset="0.121" stop-color="#fff"/><stop offset="0.223" stop-color="#fbfbfb"/><stop offset="0.329" stop-color="#eee"/><stop offset="0.438" stop-color="#d9d9d9"/><stop offset="0.548" stop-color="#bcbcbc"/><stop offset="0.659" stop-color="#969696"/><stop offset="0.77" stop-color="#696969"/><stop offset="0.78" stop-color="#646464"/></linearGradient><linearGradient id="c" x1="0.329" y1="0.33" x2="1.557" y2="0.681" gradientUnits="objectBoundingBox"><stop offset="0" stop-color="#fff"/><stop offset="0.112" stop-color="#f3f3f3"/><stop offset="0.312" stop-color="#d4d4d4"/><stop offset="0.578" stop-color="#a1a1a1"/><stop offset="0.863" stop-color="#646464"/></linearGradient></defs><g transform="translate(-167.55 -127.47)"><g transform="translate(183.708 145.911)"><g class="a" transform="translate(2.882 0.119)"><path class="b" d="M206,172.992l26.611-.327-3.887-6.269-9.171-1.446-9.765,1.481Z" transform="translate(-206 -164.95)"/></g><g transform="translate(5.511 1.535)"><path class="c" d="M221.308,167.835c-1.01.05-5.8.124-7.23.733-.56.238-2.253,2.629-2.768,4.036,1.822-.173,9.715-.144,12.706-.1.6-1.342.9-3.194,1.59-4.566A32.42,32.42,0,0,0,221.308,167.835Z" transform="translate(-211.31 -167.81)"/></g><g transform="translate(0 0)"><path d="M207.215,204.6a.92.92,0,0,1-.857.976h-4.422a.923.923,0,0,1-.857-.976v-8.785a.92.92,0,0,1,.857-.976h4.422a.923.923,0,0,1,.857.976V204.6Z" transform="translate(-200.634 -179.92)"/><path class="d" d="M258.5,204.6a.92.92,0,0,1-.857.976h-4.422a.923.923,0,0,1-.857-.976v-8.785a.92.92,0,0,1,.857-.976h4.422a.92.92,0,0,1,.857.976Z" transform="translate(-226.521 -179.92)"/><path class="e" d="M230.093,172.474c-.713-1.981-3.135-6.348-4.14-6.779-2.164-.936-7.6-.911-9.116-.985h-.6c-1.52.074-7.046.05-9.21.985-1.005.436-3.427,4.8-4.135,6.779-.936.3-2.818,2.436-2.426,6.18.238,2.263,1.134,7.755,1.134,7.755h28.755s1.7-5.2,1.7-7.755C232.059,174.747,231.024,172.777,230.093,172.474Zm-25.556-.461c.693-1.946,2.7-4.8,3.466-5.125,1.941-.842,6.908-.743,8.27-.812h.535c1.362.069,6.234-.025,8.171.812.763.327,2.773,3.179,3.466,5.125C225.354,172.088,207.433,172,204.537,172.014Z" transform="translate(-200.298 -164.71)"/><path class="f" d="M247.816,186.409s.931-5.061,1.184-7.755c.361-3.823-1.292-5.615-2.426-6.18-.713-1.981-3.13-6.348-4.135-6.779-2.159-.936-7.591-.911-9.116-.985h-.332v1.367h.3c1.367.069,6.234-.025,8.175.812.763.327,2.768,3.189,3.461,5.135-3.293-.015-7.591-.035-11.939.064v14.321h14.826Z" transform="translate(-216.743 -164.71)"/><path class="g" d="M218.979,188.066c-.5,1.075-.5,1.674.3,1.674h12.979c.936-.045.708-.743.352-1.649l-.347-.881c-.352-.906-1.005-1.649-1.8-1.649h-9.418c-.792,0-1.426.753-1.763,1.674Z" transform="translate(-209.496 -175.235)"/><g transform="translate(0.691 10.414)"><path class="g" d="M209.332,187.627a1.04,1.04,0,0,1-.946,1.456h-5.779a1.065,1.065,0,0,1-.98-1.456l.223-.822a1.475,1.475,0,0,1,1.357-1.065h4.5a1.531,1.531,0,0,1,1.387,1.065Z" transform="translate(-201.575 -185.74)"/><g transform="translate(0.45 1.708)"><path class="h" d="M203.4,190.433H208.5c.673,0,1.04-.47.837-1l-.094-.248H202.62l-.089.248C202.343,189.962,202.724,190.433,203.4,190.433Z" transform="translate(-202.483 -189.19)"/></g><g transform="translate(0.711 0.233)"><path class="i" d="M204.317,186.21a1.287,1.287,0,0,0-1.2.857l-.109.366h3.055l-.193-1.223Z" transform="translate(-203.01 -186.21)"/><path class="j" d="M212.815,187.443l-.119-.366a1.335,1.335,0,0,0-1.223-.857h-1.7c.02.361.114.941.163,1.223Z" transform="translate(-206.423 -186.215)"/></g></g><g transform="translate(23.919 10.414)"><path class="e" d="M256.246,187.627a1.04,1.04,0,0,1-.946,1.456h-5.784a1.063,1.063,0,0,1-.98-1.456l.223-.822a1.481,1.481,0,0,1,1.362-1.065h4.5a1.526,1.526,0,0,1,1.387,1.065Z" transform="translate(-248.484 -185.74)"/><g transform="translate(0.465 1.708)"><path class="h" d="M250.332,190.433h5.105c.673,0,1.04-.47.837-1l-.094-.248h-6.626l-.084.248C249.283,189.962,249.659,190.433,250.332,190.433Z" transform="translate(-249.422 -189.19)"/></g><g transform="translate(0.721 0.233)"><path class="i" d="M251.247,186.21a1.287,1.287,0,0,0-1.2.857l-.109.366H253l-.193-1.223Z" transform="translate(-249.94 -186.21)"/><path class="k" d="M259.745,187.443l-.119-.366a1.335,1.335,0,0,0-1.223-.857h-1.7c.02.361.114.941.163,1.223Z" transform="translate(-253.353 -186.215)"/></g></g><path class="l" d="M232.661,201.974l-4.006,2.8H202.088l-.708-3.887Z" transform="translate(-200.786 -182.974)"/><path class="f" d="M232.59,199.851a.509.509,0,0,1-.47.545H200.65a.509.509,0,0,1-.47-.545V197.41a.5.5,0,0,1,.47-.54h31.469a.508.508,0,0,1,.47.54Z" transform="translate(-200.18 -180.945)"/><path class="e" d="M232.588,200.016a.416.416,0,0,1-.461.352H201.471a.416.416,0,0,1-.461-.352v-1.575a.416.416,0,0,1,.461-.352h30.657a.419.419,0,0,1,.461.352Z" transform="translate(-200.599 -181.561)"/></g></g><g transform="translate(167.55 127.47)"><path class="m" d="M183.21,147.493a3.318,3.318,0,0,1,1.114-.2c.144.01-.4-.4-.619-.371S183.21,147.493,183.21,147.493Z" transform="translate(-175.455 -137.287)"/><g transform="translate(4.286 24.962)"><path d="M176.645,201.954a19.454,19.454,0,0,0,.337,5.289,1.765,1.765,0,0,0-.119,1.327c.124.6,1.129.015,1.807.04,2.184.069,2.872-.451,2.813-.822s-1.119-.688-1.763-.777-.074-4.962-.079-5.175S176.645,201.954,176.645,201.954Z" transform="translate(-176.385 -189.936)"/><path class="n" d="M177.666,177.88a5.167,5.167,0,0,0-.644,2.862s.084.258.163.624c.173.837-1.411,7.735-.857,8.522s1.649.352,1.906.079,2.857-10.775,2.857-10.775Z" transform="translate(-176.208 -177.88)"/><g transform="translate(0 2.387)"><path class="o" d="M176.321,192.386a1.208,1.208,0,0,0,1.505.322l1.624-10.008a16.77,16.77,0,0,1-2.263,1.718C177.188,185.79,175.8,191.638,176.321,192.386Z" transform="translate(-176.204 -182.7)"/></g></g><g transform="translate(4.94 37.04)"><path d="M180.435,208.2a.653.653,0,0,1-.456-.451c.168-1.159.758-3.956.971-5.185a8.46,8.46,0,0,1-3.238-.292,19.293,19.293,0,0,0,0,5.3c.015.094.03.178.045.257-.094.639-.347,1.931.084,2.065a3,3,0,0,0,1.471-.124,8.656,8.656,0,0,0,2.55-.223l.139-.1C182.584,208.415,180.96,208.272,180.435,208.2Z" transform="translate(-177.526 -202.27)"/><g transform="translate(1.834 0.282)"><path class="d" d="M182.295,208.475a.653.653,0,0,1-.456-.451c.168-1.154.758-3.957.971-5.185-.233.015-.456.02-.664.025-.238,1.377-.842,5.744-.916,5.942.079.317,1.149.49,1.575.49a7.7,7.7,0,0,0,1.164-.074C183.85,208.644,182.716,208.535,182.295,208.475Z" transform="translate(-181.23 -202.84)"/></g></g><path class="n" d="M183.341,178.315c-.322,1.768-.48,2.62-.748,3.907s-.292,3.664-1.149,5.135c-.574.99-.446,3.892-.911,3.531-.961-.748-2.837-.267-3.209-.267s-.723-.213.025-2.139a18.525,18.525,0,0,0,1.283-6.957,4.093,4.093,0,0,1,.644-3.318C180.023,177.3,183.341,178.315,183.341,178.315Z" transform="translate(-172.274 -152.893)"/><g transform="translate(7.76 25.15)"><path class="p" d="M184.656,187.569c.857-1.471.881-3.853,1.149-5.135s.426-2.139.748-3.907c0,0-.456-.139-1.065-.267h0a21.525,21.525,0,0,1-.881,6.135c-.48,1.391-.777,2.377-.936,2.961s-.109,1.713-.213,2.248c-.059.292-.134.812-.233,1.228a1.735,1.735,0,0,1,.53.272C184.21,191.462,184.077,188.56,184.656,187.569Z" transform="translate(-183.22 -178.26)"/></g><g transform="translate(7.433 13.09)"><path class="m" d="M183.625,156.93a8.76,8.76,0,0,1-.307,1.6,7.762,7.762,0,0,1-.758,1.817l2.184.753s.357-1.713.832-2.045C185.615,159.03,183.625,156.93,183.625,156.93Z" transform="translate(-182.56 -155.432)"/><path class="m" d="M187.58,155.259c-.089,1.317-.639,2.525-1.164,2.575s-1.738-.985-1.837-2.005a1.591,1.591,0,0,1,1.52-1.921C187.189,153.967,187.65,154.239,187.58,155.259Z" transform="translate(-183.574 -153.905)"/></g><path class="q" d="M186.6,153.8a2.3,2.3,0,0,0-2.595-1.263c-1.134.371-1.421.842-1.461,1.391-.094.515-.035,1.183-.1,1.377.079.431-.262.857-.322.748.267.5.52,0,.52,0l-.456.307a.476.476,0,0,0,.361.089c.2-.04-.213.2-.213.2s.926.322,1.055.337.644-.02.644-.02.7.045.6-.109c-.2-.327,0-.4.109-.3.168.134.446-.257.446-.257s.282-.223.025-.441c-.134-.1.02-.49.03-.569.04-.332.411-.465.4-.134s.163.262.163.262l.154.015a9.1,9.1,0,0,1,.381-.961.55.55,0,0,0,.649-.411C186.973,154.142,186.795,153.993,186.6,153.8Z" transform="translate(-174.905 -140.078)"/><path class="r" d="M167.669,140.924a2.6,2.6,0,0,1-.119-.763h0c.03-2.07,2.456-3.689,4.5-4.229h0a11.566,11.566,0,0,0,.307-2.649h0a12.42,12.42,0,0,0-1.411-5.685h0l.257-.129a12.732,12.732,0,0,1,1.446,5.813h0a12.165,12.165,0,0,1-.287,2.575h0a4.9,4.9,0,0,1,1-.119h0a2.424,2.424,0,0,1,.763.109h0l-.094.272a2.054,2.054,0,0,0-.669-.094h0a4.8,4.8,0,0,0-1.065.139h0c-.792,3.194-2.714,5.313-3.877,5.353H168.4a.761.761,0,0,1-.728-.594Zm2.169-3.679a3.824,3.824,0,0,0-2,2.917h0a2.354,2.354,0,0,0,.1.678h0c.1.292.238.381.461.391h0c.54.02,1.575-.8,2.412-2.218h0a10.874,10.874,0,0,0,1.149-2.758h0a7.739,7.739,0,0,0-2.129.99Z" transform="translate(-167.55 -127.47)"/><g transform="translate(7.695 8.968)"><path class="d" d="M183.09,145.877l11.246,5.071.129-.292-11.246-5.076Z" transform="translate(-183.09 -145.58)"/><g transform="translate(11.161 5.036)"><path class="s" d="M206.513,155.75l14.836,2.808a44.578,44.578,0,0,0-6.15,5.125c-2.719-2.025-8.9-7.383-8.9-7.383Z" transform="translate(-205.968 -155.75)"/><path class="t" d="M206.232,155.92l11.33,2.709-.05.064-11.3-2.7,10.5,3.442-.064.1-10.567-3.546,10.528,4.254-.059.059-10.315-4.115,10.032,5.437-10.117-5.407,9.369,6.333-.094.144-9.359-6.442-.158-.366Z" transform="translate(-205.771 -155.821)"/><path class="t" d="M206.29,156.409l.03-.059,10.28,4.912-.025.059Z" transform="translate(-205.963 -156.053)"/><path class="t" d="M206.59,156.744l.035-.054,9.443,5.66-.035.054Z" transform="translate(-206.115 -156.225)"/><path class="t" d="M206.25,156.1l.01-.04,11.211,3.031-.01.035Z" transform="translate(-205.943 -155.906)"/><path class="t" d="M205.63,156.26l.04-.05,9.275,7.279-.04.05Z" transform="translate(-205.63 -155.982)"/><path class="t" d="M206.4,155.875l0-.035,11.087,2.342,0,.04Z" transform="translate(-206.019 -155.795)"/><path class="t" d="M206.18,156.059,206.2,156l10.419,3.971-.025.064Z" transform="translate(-205.908 -155.876)"/></g><g transform="translate(11.027 4.927)"><path d="M206.16,156.247c-.025.059-.069.02-.149-.01l-.025-.01a.139.139,0,0,1-.094-.168l.173-.416a.134.134,0,0,1,.183-.05l.02.01a.188.188,0,0,1,.064.218Z" transform="translate(-205.625 -155.554)"/><path d="M205.85,155.585a.645.645,0,0,0-.366-.04c-.089.218-.124.287-.124.287s-.02.114.327.272A3.53,3.53,0,0,0,205.85,155.585Z" transform="translate(-205.36 -155.53)"/><g transform="translate(0.07 0.003)"><path class="d" d="M205.569,155.549a.6.6,0,0,1,.342.04.166.166,0,0,1,.154-.015l.02.01c.074.035.139.02.114.079l-.1.262-.594-.243Z" transform="translate(-205.5 -155.537)"/></g></g></g><g transform="translate(14.74 12.01)"><path class="m" d="M198.527,152.208a.416.416,0,0,0-.1-.352c-.059-.05-.223.069-.218.307.015-.064,0-.124.025-.223.069-.381-.3,0-.3,0a2.138,2.138,0,0,0-.01.322c0-.149-.025-.149-.015-.262.03-.074.089-.079.094-.163.01-.144-.163-.144-.233-.059-.035.04-.173.257-.173.257a2.1,2.1,0,0,0-.069.545c.025.168.173.985.173.985a14.882,14.882,0,0,1-.366,1.708c-.149.357,1.208.693,1.208.693a15.418,15.418,0,0,1,.307-2.149,3.831,3.831,0,0,0,.1-1.253s-.109-.49-.3-.515C198.576,152.039,198.542,152.094,198.527,152.208Z" transform="translate(-197.317 -151.725)"/></g><path class="n" d="M190.031,159.569a8.9,8.9,0,0,0,2.912-.886l1.05-2.322.51.262.569.624s-.921,3.115-1.411,3.5a12.443,12.443,0,0,1-3.362,1.689C189.506,162.53,188.937,159.712,190.031,159.569Z" transform="translate(-178.593 -142.054)"/><g transform="translate(4.986 15.669)"><path class="n" d="M184.576,160.949a2.551,2.551,0,0,0-1.416-.366,9.691,9.691,0,0,1-1.263.178c-1.49.158-1.406-.456-1.406-.456s-1.149-1.268-1.486-1.188c-.465.1-.421,2.243-.6,4.882-.02.292-1.248,3.823-.589,5.135.386.768,4.363.253,5.62.911.391.208.872-1.535.911-1.9a24.885,24.885,0,0,1,.639-4.734A12.246,12.246,0,0,0,184.576,160.949Z" transform="translate(-177.618 -159.113)"/><path class="p" d="M183.243,160.92l-.193.292a.966.966,0,0,0,.8.56,6.515,6.515,0,0,0,2.268-.262c-.282-.361-.2-.48-.2-.48a6.69,6.69,0,0,1-2.065.213A1.054,1.054,0,0,1,183.243,160.92Z" transform="translate(-180.36 -160.025)"/></g><path class="p" d="M192.675,155.91a13.187,13.187,0,0,1-.911,2.486,14.663,14.663,0,0,1-2.3.7c-.243-.054-1.273-.069-1.292-.129s-.609.208-.609.208a7.684,7.684,0,0,1,1.738.589c.267.243,2.783-.723,3.238-1.337a10.7,10.7,0,0,0,.966-2.06S192.759,155.935,192.675,155.91Z" transform="translate(-177.651 -141.827)"/><path d="M183.81,146.08a.475.475,0,0,1-.629.154l-2.733-1.154c-.267-.114-.416-.361-.332-.56h0a.47.47,0,0,1,.629-.154l2.733,1.159c.267.109.416.357.332.555Z" transform="translate(-173.882 -135.973)"/><path class="m" d="M178.522,148.866l1.3-2.516s1-.713,1.065-1.075c0,0,.183-.475.05-.56-.228-.149-.337.119-.376.2,0,0,0,0-.01,0,.074-.178.193-.307.089-.386-.163-.124-.258.01-.327.124.02-.094.173-.168-.025-.238-.109-.04-.253.109-.327.238h-.01c.04-.1.1-.173-.035-.238-.1-.05-.352.079-.465.233a3.059,3.059,0,0,0-.49,1.03c-.149.391-2.03,2.149-2.149,2.659C176.635,149.1,178.522,148.866,178.522,148.866Z" transform="translate(-172.218 -136.016)"/><g transform="translate(4.196 10.894)"><path class="n" d="M179.122,155.209a11.51,11.51,0,0,1-.936-3.3,3.184,3.184,0,0,1,.614-1.258s-1.367-.693-1.58-1.179c-.644,1.07-1.243,1.634-1.193,2.491s.8,5.378,1.768,6.14C178.345,158.532,179.122,155.209,179.122,155.209Z" transform="translate(-176.024 -149.47)"/><g transform="translate(1.555 0.857)"><path class="p" d="M179.771,152.78a3.184,3.184,0,0,1,.614-1.258s-.258-.134-.569-.322a13.607,13.607,0,0,0-.609,1.436,1.609,1.609,0,0,0,.04.881c.158.48.3,2.119,1.184,2.466.089.035.223-.163.3-.158A6.334,6.334,0,0,1,179.771,152.78Z" transform="translate(-179.164 -151.2)"/></g></g></g></g></svg>