<svg xmlns="http://www.w3.org/2000/svg" width="41.283" height="32.864" viewBox="0 0 41.283 32.864"><defs><style>.a{fill:#e59770;}.b{fill:#db7e56;}.c{fill:#f9e8d4;}.d{fill:#e8d0ba;}.e{fill:#fec007;}.f{fill:#efad0a;}</style></defs><g transform="translate(0 -52.209)"><path class="a" d="M26.283,68.535c-1.077-6.912-3.967-11.211-6.754-13.832a9.173,9.173,0,0,0-12.567,0C4.175,57.323,1.283,61.622.206,68.534c0,0-2.028,9.691,6.639,14.759a12.668,12.668,0,0,0,12.8,0C28.31,78.227,26.283,68.535,26.283,68.535Z" transform="translate(0 -0.004)"/><path class="b" d="M157.5,83.29a12.663,12.663,0,0,1-7.552,1.681,12.664,12.664,0,0,0,5.325-1.689c8.668-5.067,6.641-14.758,6.641-14.758-1.077-6.913-3.968-11.211-6.754-13.832a9.141,9.141,0,0,0-5.141-2.419,9.159,9.159,0,0,1,7.368,2.427c2.786,2.621,5.677,6.92,6.754,13.832C164.139,68.532,166.167,78.223,157.5,83.29Z" transform="translate(-137.857 0)"/><path class="c" d="M209.763,69.138c-1.077-6.912-3.967-11.211-6.754-13.832a9.173,9.173,0,0,0-12.567,0c-2.787,2.621-5.678,6.919-6.756,13.831,0,0-2.028,9.691,6.639,14.759a12.668,12.668,0,0,0,12.8,0C211.79,78.83,209.763,69.138,209.763,69.138Z" transform="translate(-168.686 -0.558)"/><path class="d" d="M340.977,83.893a12.663,12.663,0,0,1-7.552,1.681,12.664,12.664,0,0,0,5.325-1.689c8.668-5.067,6.641-14.758,6.641-14.758-1.077-6.913-3.968-11.211-6.755-13.832a9.141,9.141,0,0,0-5.141-2.419,9.159,9.159,0,0,1,7.368,2.427c2.786,2.621,5.677,6.92,6.754,13.832C347.617,69.135,349.645,78.826,340.977,83.893Z" transform="translate(-306.541 -0.554)"/><circle class="e" cx="6.735" cy="6.735" r="6.735" transform="translate(21.305 66.821)"/><path class="f" d="M303.652,245.4a6.735,6.735,0,0,1-11.195,5.046,6.735,6.735,0,0,0,6.9-11.323A6.739,6.739,0,0,1,303.652,245.4Z" transform="translate(-268.876 -171.839)"/></g></svg>