<svg xmlns="http://www.w3.org/2000/svg" width="26.617" height="29.688" viewBox="0 0 26.617 29.688"><defs><style>.a{fill:#f9e109;}.b{fill:#fcbc04;}.c{fill:#f8664f;}.d{fill:#84d2f4;}.e{fill:#cc5144;}.f{fill:#57b7eb;}.g{fill:#e59730;}.h{fill:#f89c8d;}.i{fill:#f7f754;}.j{fill:#c4f236;}.k{fill:#a1d51c;}</style></defs><g transform="translate(-6 -3)"><g transform="translate(6 3)"><g transform="translate(1.536)"><path class="a" d="M24.047,11.018H22V6.923a1.024,1.024,0,0,1,.456-.852L27.063,3,28.2,4.7,24.047,7.471Z" transform="translate(-15.346 -3)"/><path class="b" d="M28.2,5.446,24.047,8.211v3.547H22V7.663a1.021,1.021,0,0,1,.456-.85l.517-.348a2.738,2.738,0,0,0,2.467-.384L27.584,4.52Z" transform="translate(-15.346 -3.742)"/><path class="c" d="M22.308,43.915H11.047L9,26H24.356Z" transform="translate(-9 -14.227)"/><path class="d" d="M10.024,22H23.332a1.024,1.024,0,0,1,1.024,1.024v1.024H9V23.024A1.024,1.024,0,0,1,10.024,22Z" transform="translate(-9 -12.275)"/><path class="d" d="M15.024,18h8.19a1.024,1.024,0,0,1,1.024,1.024v1.024H14V19.024A1.024,1.024,0,0,1,15.024,18Z" transform="translate(-11.441 -10.322)"/><path class="e" d="M24.182,27.536h-11.6A17.478,17.478,0,0,0,23.6,32.6l-1.3,11.312H11.047L9,26H24.356Z" transform="translate(-9 -14.227)"/><g transform="translate(0 7.678)"><path class="f" d="M24.356,23.024v1.024H9V23.024A1.027,1.027,0,0,1,10.024,22a1.027,1.027,0,0,0,1.024,1.024Z" transform="translate(-9 -19.953)"/><path class="f" d="M24.237,19.024v1.024H14V19.024A1.027,1.027,0,0,1,15.024,18a1.027,1.027,0,0,0,1.024,1.024Z" transform="translate(-11.441 -18)"/></g></g><g transform="translate(10.749 9.93)"><path class="g" d="M43.536,22.707,42.512,35.5,42,41.134l2.559.512,1.536-18.427L44.559,22.4Z" transform="translate(-34.322 -22.4)"/><path class="b" d="M39,26.047l1.024,12.285h3.071l-1.024-12.8L40.536,24Z" transform="translate(-32.858 -23.181)"/><path class="g" d="M43.095,39.518H40.024L39,27.234l.6-.8.932,7.458h.512l.558-3.255.466-.328.312.312Z" transform="translate(-32.858 -24.367)"/><path class="a" d="M35.047,30.5l-1.517-.521L33,31.527l2.559,8.19,2.389-1.024Z" transform="translate(-29.929 -26.101)"/><path class="b" d="M37.95,38.726l-2.39,1.024L33,31.56l.522-1.51.937,2.815a9.077,9.077,0,0,0,2.9,4.187Z" transform="translate(-29.929 -26.134)"/><path class="a" d="M53.009,24l-2.088,9.725h2.088l1.536-7.166Z" transform="translate(-38.677 -23.181)"/><path class="b" d="M52.931,28.773l.819-3.541L53.009,24l-2.088,9.725h2.088l.7-3.255A1.536,1.536,0,0,1,52.931,28.773Z" transform="translate(-38.677 -23.181)"/><path class="a" d="M27,30l3.583,9.725,2.047-.512L29.047,30Z" transform="translate(-27 -26.11)"/><path class="b" d="M27,30l3.583,9.725,1.024-.256L27.951,30Z" transform="translate(-27 -26.11)"/><path class="a" d="M47.536,27,46,39.285l2.047-.512,2.047-10.749Z" transform="translate(-36.275 -24.645)"/><path class="b" d="M48.928,34.151l-.88,4.622L46,39.285,47.536,27l.993.4-.409,5.748A.95.95,0,0,0,48.928,34.151Z" transform="translate(-36.275 -24.645)"/><path class="a" d="M46.047,43.213H44L44.512,34l2.047.512Z" transform="translate(-35.298 -28.062)"/><path class="b" d="M45.4,38.385l.116-4.134-1-.251L44,43.213h2.047l.2-3.416A1.536,1.536,0,0,1,45.4,38.385Z" transform="translate(-35.298 -28.062)"/><path class="d" d="M41.773,39c0,1.979-2.062,3.583-4.607,3.583s-4.607-1.6-4.607-3.583H30l1.536,11.261H42.8L44.332,39Z" transform="translate(-28.464 -30.503)"/><path class="f" d="M43.078,48.213,42.8,50.261H31.536L30,39h2.559a3.128,3.128,0,0,0,1.06,2.283,8.185,8.185,0,0,0,8.092,6.931Z" transform="translate(-28.464 -30.503)"/><circle class="a" cx="1.5" cy="1.5" r="1.5" transform="translate(6.963 14.748)"/><path class="b" d="M43.81,54.02A1.536,1.536,0,0,1,41,53.165a1.508,1.508,0,0,1,.276-.875,8.165,8.165,0,0,0,2.534,1.73Z" transform="translate(-33.834 -36.991)"/></g><g transform="translate(0 15.356)"><path class="h" d="M19.261,47.095H10.047a2.047,2.047,0,0,1,0-4.095h9.213a2.047,2.047,0,0,1,0,4.095Z" transform="translate(-6.976 -37.881)"/><path class="c" d="M20.283,46.071a2.012,2.012,0,0,0,.839-.184,1.978,1.978,0,0,1-.415.609,2.06,2.06,0,0,1-1.449.6H10.046A2.047,2.047,0,0,1,8.6,43.6a1.978,1.978,0,0,1,.609-.415A2.012,2.012,0,0,1,10.046,43h9.213a2.047,2.047,0,0,1,1.351.512,1.962,1.962,0,0,1,.563.819,1.083,1.083,0,0,1-.947.558,1.107,1.107,0,0,1-.486-.113,1.063,1.063,0,0,0-.962,0l-1.085.543a1.063,1.063,0,0,1-.962,0l-1.085-.543a1.063,1.063,0,0,0-.962,0l-1.085.543a1.063,1.063,0,0,1-.962,0l-1.085-.543a1.063,1.063,0,0,0-.962,0l-.824.415a1.586,1.586,0,0,1-.3.107,2.039,2.039,0,0,0,1.6.773Z" transform="translate(-6.975 -37.881)"/><path class="b" d="M6,55H21.356v1.024a2.047,2.047,0,0,1-2.047,2.047H8.047A2.047,2.047,0,0,1,6,56.024Z" transform="translate(-6 -43.739)"/><path class="g" d="M23.019,55l-.409.512L22.2,55Z" transform="translate(-13.908 -43.739)"/><path class="g" d="M23.019,55l-.409.512L22.2,55Z" transform="translate(-13.908 -43.739)"/><path class="e" d="M20.285,53.047H9.024a1.024,1.024,0,0,1,0-2.047H20.285a1.024,1.024,0,0,1,0,2.047Z" transform="translate(-6.976 -41.787)"/><path class="i" d="M22.047,53.559,20,51h4.095Z" transform="translate(-12.834 -41.787)"/><path class="a" d="M21.872,51.549,21.433,51H20l2.047,2.559,1.159-1.449a1.522,1.522,0,0,1-1.335-.562Z" transform="translate(-12.834 -41.787)"/><path class="j" d="M7,43a1.656,1.656,0,0,0,.916,1.482l.391.2a1.654,1.654,0,0,0,1.481,0l.824-.409a1.081,1.081,0,0,1,.966,0l1.081.541a1.081,1.081,0,0,0,.966,0l1.081-.541a1.081,1.081,0,0,1,.966,0l1.081.541a1.081,1.081,0,0,0,.966,0l1.081-.541a1.081,1.081,0,0,1,.966,0,1.081,1.081,0,0,0,1.564-.968V43Z" transform="translate(-6.488 -37.881)"/><path class="b" d="M16.237,33H11.119A5.119,5.119,0,0,0,6,38.119H21.356A5.119,5.119,0,0,0,16.237,33Z" transform="translate(-6 -33)"/><path class="g" d="M21.356,38.3H6A5.119,5.119,0,0,1,9.747,33.37a4.607,4.607,0,0,0,4.443,3.394H21.12A5.071,5.071,0,0,1,21.356,38.3Z" transform="translate(-6 -33.181)"/><path class="g" d="M21.356,56.024a2.047,2.047,0,0,1-2.047,2.047H8.047A2.047,2.047,0,0,1,6,56.024V55H7.09a2.043,2.043,0,0,0,1.981,1.536H19.82A2.529,2.529,0,0,0,21.356,56.024Z" transform="translate(-6 -43.739)"/><path class="k" d="M21.332,43v.3a.729.729,0,0,1-.026.215H7.87a1.565,1.565,0,0,0,.558.456l.389.2a1.681,1.681,0,0,0,1.484,0l.824-.415a1.063,1.063,0,0,1,.962,0l1.085.543a1.063,1.063,0,0,0,.962,0l1.085-.543a1.063,1.063,0,0,1,.962,0l1.085.543a1.063,1.063,0,0,0,.962,0l1.085-.543a1.063,1.063,0,0,1,.962,0,1.075,1.075,0,0,0,.952.005,1.085,1.085,0,0,1-.978.619,1.107,1.107,0,0,1-.486-.113,1.063,1.063,0,0,0-.962,0l-1.085.543a1.063,1.063,0,0,1-.962,0l-1.085-.543a1.063,1.063,0,0,0-.962,0l-1.085.543a1.063,1.063,0,0,1-.962,0l-1.085-.543a1.063,1.063,0,0,0-.962,0l-.824.415a1.681,1.681,0,0,1-1.484,0l-.389-.2A1.643,1.643,0,0,1,7,43Z" transform="translate(-6.488 -37.881)"/><g transform="translate(2.936 1.284)"><g transform="translate(1.958)"><circle class="a" cx="0.5" cy="0.5" r="0.5" transform="translate(2.818 0.039)"/><circle class="a" cx="0.5" cy="0.5" r="0.5" transform="translate(0.818 0.039)"/><circle class="a" cx="0.5" cy="0.5" r="0.5" transform="translate(-0.182 1.039)"/><circle class="a" cx="0.5" cy="0.5" r="0.5" transform="translate(7.818 1.039)"/></g><circle class="b" cx="0.5" cy="0.5" r="0.5" transform="translate(-0.224 0.039)"/><ellipse class="a" cx="1" cy="0.5" rx="1" ry="0.5" transform="translate(6.776 0.039)"/></g><path class="b" d="M15.978,37.81A.512.512,0,0,1,15,37.595a.523.523,0,0,1,.225-.425h.005a4.45,4.45,0,0,0,.747.64Z" transform="translate(-10.393 -35.036)"/></g></g></g></svg>