<svg xmlns="http://www.w3.org/2000/svg" width="34.505" height="35.47" viewBox="0 0 34.505 35.47"><defs><style>.a{fill:#eab875;}.b{fill:#c68d4e;}.c{fill:#fff7af;}.d{fill:#ed5176;}.e{fill:#ba365f;}.f{fill:#804c68;}.g{fill:#60364e;}.h{fill:#e9e9ea;}.i{fill:#c5c4cc;}.j{fill:#c8e7f7;}.k{fill:#8cbcd6;}.l{fill:#7fab38;}.m{fill:#aed559;}.n{fill:#ffcd34;}.o{fill:#e69012;}.p{fill:#90b6e1;}.q{fill:#5692d8;}.r{fill:#575b7a;}</style></defs><g transform="translate(-0.001)"><path class="a" d="M3.546,20.227a4.4,4.4,0,0,0-1.819,5.954L9.574,40.933A4.4,4.4,0,0,0,17.347,36.8L9.5,22.046a4.4,4.4,0,0,0-5.955-1.819Zm0,0" transform="translate(-1.126 -18.345)"/><path class="b" d="M44.226,36.8,36.38,22.046a4.4,4.4,0,0,0-5.955-1.819c-.116.062-.227.129-.335.2,1.756-.711,3.947.261,5.027,2.292l7.847,14.751c1.08,2.031.662,4.391-.909,5.45.119-.05.236-.105.352-.167A4.4,4.4,0,0,0,44.226,36.8Zm0,0" transform="translate(-28.005 -18.344)"/><path class="c" d="M60.367,187.346c-.352-.661-1.967-.49-3.608.383-.179.1-.349.195-.513.3l1.254,2.357q.264-.117.533-.259c1.641-.873,2.686-2.117,2.334-2.778Zm0,0" transform="translate(-52.349 -173.993)"/><path class="c" d="M96.395,255.076c-.352-.661-1.967-.49-3.608.383-.178.095-.349.194-.513.3l1.254,2.357q.264-.117.533-.259c1.641-.873,2.686-2.117,2.334-2.778Zm0,0" transform="translate(-85.881 -237.031)"/><path class="c" d="M20.731,120q-.268.143-.513.3l1.254,2.357q.264-.117.532-.259c1.641-.873,2.686-2.116,2.335-2.778s-1.967-.49-3.608.383Zm0,0" transform="translate(-18.818 -110.953)"/><path class="d" d="M246.5,1.332V4.31a.16.16,0,0,0,.16.16h4.378a.16.16,0,0,0,.16-.16V1.332A1.332,1.332,0,0,0,249.87,0h-2.034A1.332,1.332,0,0,0,246.5,1.332Zm0,0" transform="translate(-229.426)"/><path class="e" d="M279.376,0h-1.169A1.229,1.229,0,0,1,279.3,1.332V4.31a.147.147,0,0,1-.13.16h1.383a.159.159,0,0,0,.159-.16V1.332A1.332,1.332,0,0,0,279.376,0Zm0,0" transform="translate(-258.933)"/><path class="f" d="M210,66.406V64.523h-3.923v1.882a1.39,1.39,0,0,1-.635,1.168,6.933,6.933,0,0,0-1.99,1.7c-1.284,2.414-.638,10.936-.638,10.936h10.448s.646-8.522-.638-10.936a6.933,6.933,0,0,0-1.99-1.7A1.39,1.39,0,0,1,210,66.406Zm0,0" transform="translate(-188.613 -60.053)"/><path class="g" d="M293.318,69.273a6.937,6.937,0,0,0-1.99-1.7,1.39,1.39,0,0,1-.634-1.168V64.523h-1.342v1.882a1.49,1.49,0,0,0,.519,1.168,6.177,6.177,0,0,1,1.626,1.7c1.049,2.414.522,10.936.522,10.936h1.938S294.6,71.686,293.318,69.273Zm0,0" transform="translate(-269.306 -60.053)"/><path class="h" d="M279.924,178.316h-6.541l-1.965,2.47v11.588h10.471V180.786Zm0,0" transform="translate(-252.614 -165.963)"/><path class="i" d="M376.676,178.316h-1.3l1.663,2.47v11.588h1.606V180.786Zm0,0" transform="translate(-349.366 -165.963)"/><path class="j" d="M300.413,138.344h5.278a.631.631,0,0,1,.632.631v2.138h-6.541v-2.138A.631.631,0,0,1,300.413,138.344Zm0,0" transform="translate(-279.013 -128.76)"/><path class="k" d="M368.238,138.344h-1.254a.581.581,0,0,1,.581.581v2.188h1.3v-2.138A.632.632,0,0,0,368.238,138.344Zm0,0" transform="translate(-341.56 -128.76)"/><path class="l" d="M189.471,138.666l0,0,3.193-2.572a1.508,1.508,0,1,0-2.284-1.864l-1.879,3.645,0,0h0a.638.638,0,0,0,.968.79h0Zm0,0" transform="translate(-175.377 -124.162)"/><path class="l" d="M122.849,138.666l0,0-3.194-2.572a1.533,1.533,0,0,1-.228-.225,1.508,1.508,0,1,1,2.512-1.638l1.879,3.645,0,0h0a.638.638,0,0,1-.968.79Zm0,0" transform="translate(-110.834 -124.162)"/><path class="m" d="M158.23,81.956l0-.007,1.3-6.171a2.319,2.319,0,1,0-4.534,0l1.3,6.171v.007h0a.982.982,0,0,0,1.922,0Zm0,0" transform="translate(-144.214 -67.914)"/><path class="n" d="M138.961,192.991a3.971,3.971,0,1,0-7.762,0l2.3,10.756a1.614,1.614,0,0,0,3.165,0Zm0,0" transform="translate(-122.026 -175.143)"/><path class="o" d="M182.057,188.18a4.038,4.038,0,0,0-.474.029c1.549.235,2.751,1.909,2.751,3.942a5.019,5.019,0,0,1-.071.84l-1.808,10.756a1.533,1.533,0,0,1-.871,1.224,1.611,1.611,0,0,0,2.057-1.224l2.3-10.756a3.971,3.971,0,0,0-3.881-4.811Zm0,0" transform="translate(-169.002 -175.143)"/><path class="m" d="M51.3,304.605l.3,2.528.221,1.888.97,8.3a1.874,1.874,0,0,0,1.861,1.656h20.7a1.874,1.874,0,0,0,1.861-1.656L78.7,304.605Zm0,0" transform="translate(-47.746 -283.503)"/><path class="l" d="M78.509,306.219l.189-1.614H51.3l.189,1.614Zm0,0" transform="translate(-47.746 -283.503)"/><path class="l" d="M376.032,304.605l-1.487,12.712a1.874,1.874,0,0,1-1.861,1.656h1.784a1.874,1.874,0,0,0,1.861-1.656l1.487-12.712Zm0,0" transform="translate(-346.865 -283.503)"/><path class="p" d="M23.285,251.8v1.747a.99.99,0,0,0,.99.99h29.3a.99.99,0,0,0,.99-.99V251.8a.99.99,0,0,0-.99-.99h-29.3A.99.99,0,0,0,23.285,251.8Zm0,0" transform="translate(-21.672 -233.43)"/><path class="q" d="M436.137,250.8h-1.813a.99.99,0,0,1,.99.99v1.747a.99.99,0,0,1-.99.99h1.813a.99.99,0,0,0,.99-.99V251.8A.99.99,0,0,0,436.137,250.8Zm0,0" transform="translate(-404.235 -233.43)"/><path class="r" d="M374.661,283.034a1.01,1.01,0,0,1-1.006-.48l-7.1-11.838a1.008,1.008,0,1,1,1.729-1.038l7.1,11.838a1.009,1.009,0,0,1-.723,1.518Zm0,0" transform="translate(-341.023 -250.54)"/><path class="r" d="M.868,283.034a1.01,1.01,0,0,0,1.006-.48l7.1-11.838a1.008,1.008,0,1,0-1.729-1.038l-7.1,11.838a1.009,1.009,0,0,0,.723,1.518Zm0,0" transform="translate(0 -250.54)"/><g transform="translate(9.401 23.646)"><path class="l" d="M137.48,343.986a.894.894,0,1,1-1.788,0v-1.771a.894.894,0,1,1,1.788,0Zm0,0" transform="translate(-135.691 -341.32)"/><path class="l" d="M187.7,427.509a.894.894,0,1,1-1.789,0v-1.771a.894.894,0,0,1,1.789,0Zm0,0" transform="translate(-182.428 -419.057)"/><path class="l" d="M237.913,343.986a.894.894,0,1,1-1.788,0v-1.771a.894.894,0,1,1,1.788,0Zm0,0" transform="translate(-229.167 -341.32)"/><path class="l" d="M288.128,427.509a.894.894,0,1,1-1.789,0v-1.771a.894.894,0,1,1,1.789,0Zm0,0" transform="translate(-275.903 -419.057)"/><path class="l" d="M338.347,343.986a.894.894,0,1,1-1.788,0v-1.771a.894.894,0,1,1,1.788,0Zm0,0" transform="translate(-322.643 -341.32)"/></g><path class="i" d="M367.2,207.5h-2.646a.52.52,0,1,1,0-1.039H367.2a.52.52,0,1,1,0,1.039Zm0,0" transform="translate(-338.816 -192.162)"/></g></svg>