<svg xmlns="http://www.w3.org/2000/svg" width="32.293" height="23.486" viewBox="0 0 32.293 23.486"><defs><style>.a{fill:#edb4a2;}.b{fill:#f3cdc1;}.c{fill:#ae2b00;}.d{fill:#e48d72;}.e{fill:#8e1600;}.f{fill:#d65128;}</style></defs><g transform="translate(0.002 -0.5)"><path class="a" d="M32.293,10.04C32.292,4.771,26.378.5,19.082.5a17.086,17.086,0,0,0-6.734,1.337c-2.2.948-4.518,1.585-6.793,2.342C2.257,5.276,0,7.486,0,10.04v4.406C0,17,2.257,19.21,5.556,20.307c2.274.756,4.591,1.393,6.792,2.341a17.087,17.087,0,0,0,6.734,1.337c7.3,0,13.21-4.271,13.211-9.54Zm0,0" transform="translate(-0.001)"/><path class="b" d="M19.083.5a17.267,17.267,0,0,0-6.149,1.1,69.6,69.6,0,0,1-6.64,2.357C2.6,4.955,0,7.3,0,10.041s2.6,5.085,6.293,6.084a69.655,69.655,0,0,1,6.64,2.357,17.267,17.267,0,0,0,6.149,1.1c7.3,0,13.211-4.272,13.211-9.541S26.379.5,19.083.5Zm0,0" transform="translate(-0.002)"/><path class="c" d="M359.665,141.892a1.481,1.481,0,0,0-1.451-1.755h-4.327c-2.936,0-2.81,1.109-2.81,1.468a1.333,1.333,0,0,0,.393.949,5.286,5.286,0,0,1,1.555,3.7,1.381,1.381,0,0,0,2.014,1.075c2.486-1.279,4.216-3.216,4.626-5.434Zm0,0" transform="translate(-328.935 -130.83)"/><path class="d" d="M358.044,148.625c-.024,0-.047,0-.071,0a.734.734,0,0,0-.66.8c0,.027,0,.054.006.081v.009h0v.006h0v.022h0v.016c0,.013,0,.026,0,.039v0s0,.006,0,.01v0s0,.006,0,.01v0s0,.006,0,.009h0v.006h0s0,0,0,.006h0v.005h0v.006h0v.005h0v0h0v0h0v0h0v0h0v.01h0v0h0a.052.052,0,0,1,0,.006h0v0h0v0h0v.007h0v0h0v0h0v.01h0v0h0v.01h0v0h0v.01h0v0h0s0,.007,0,.01h0v0h0v.01h0v0h0v0h0a.065.065,0,0,1,0,.007h0v0h0v0h0v.007h0v0h0v0h0v0h0v.007h0v0h0v.047h0l0,.014h0v.006h0v.006h0v.006h0v.006h0v.007h0l0,.022h0v.007h0v.006h0v.007h0l-.008.036h0a6.614,6.614,0,0,1-1.524,2.921l-.005.006h0l0,.006h0l-.027.03h0l0,.005h0l0,0h0l0,0h0l0,.005h0l-.011.012h0l0,0,0,0,0,0-.005.006,0,0,0,0v0l0,0,0,0,0,0,0,0,0,0,0,0,0,0,0,0,0,0,0,0,0,0,0,0,0,0,0,0,0,0,0,0h0l-.013.014h0l0,0h0l0,0h0l0,0h0l0,0h0l-.024.026,0,.005h0l0,0h0l-.117.122-.027.03-.029.028a10.291,10.291,0,0,1-2.146,1.633h0l-.034.02-.007,0h0l-.028.016h0l-.006,0h0l-.006,0h0l-.028.016h0l-.028.016-.042.024h0l-.007,0h0l-.006,0h0l-.021.012h0l-.006,0h0l-.006,0h0l-.021.011h0l-.006,0h0l-.006,0h0l-.02.011h0l-.006,0h0l-.005,0h0l-.006,0h0l-.014.008h0l-.006,0h0l-.005,0h0l-.006,0h0l-.014.007h0l-.005,0h0l0,0h0l-.005,0h0l-.014.007h0l-.006,0-.007,0h0l-.005,0h0l-.006,0h0l-.007,0h0l-.006,0-.007,0h0l-.007,0-.006,0h0l-.007,0h0l-.007,0h0l-.007,0,0,0-.009,0-.007,0h0l-.006,0h0l0,0h0l0,0-.007,0h0l-.007,0a1.4,1.4,0,0,1-.64.156,1.371,1.371,0,0,1-1.374-1.232V154.2h0s0,0,0,0h0v-.005h0a.055.055,0,0,1,0-.007h0v-.006h0v-.005h0v-.006h0a.038.038,0,0,1,0,0h0v-.005h0a.052.052,0,0,1,0-.006h0v-.012h0v-.006h0V154.1h0v-.013h0v-.005h0v-.006h0v-.006h0v-.012h0v-.006h0a.033.033,0,0,1,0-.005h0v-.006h0a.052.052,0,0,1,0-.006h0s0,0,0-.005h0s0,0,0-.006V154h0a.043.043,0,0,1,0-.006h0v-.013h0a.047.047,0,0,1,0-.005h0l0-.013h0v0h0l0-.019h0l0-.019h0v-.005h0V153.9h0s0,0,0,0v0s0,0,0,0v-.008h0a.037.037,0,0,0,0-.005v-.02h0v-.012h0v-.008a.03.03,0,0,0,0,0h0v-.012h0v0h0v0h0V153.8a.027.027,0,0,0,0,0h0a.034.034,0,0,1,0,0h0l0-.012h0v-.006a.027.027,0,0,1,0,0v-.009a.019.019,0,0,1,0,0v-.007h0v-.026a.019.019,0,0,0,0,0V153.7a.019.019,0,0,1,0,0v-.013h0a.028.028,0,0,0,0,0v-.008a.025.025,0,0,0,0,0v-.037h0v-.139h0v-.038h0v-.009h0v-.008h0v-.009h0v-.007h0v-.033a.044.044,0,0,0,0-.006v-.01h0l0-.008h0v-.017h0v0h0v0h0v-.007h0v0h0v0h0V153.3h0v0h0v0h0l0-.012h0v0h0l0-.012h0v0h0l0-.016h0l0-.016h0v0h0l0-.012h0v0h0l0-.013,0-.017h0v0h0l0-.012h0v0l0-.017h0v0h0l0-.008h0v0h0v0h0l0-.011h0v0h0l0-.016h0l0-.016h0l0-.016h0l0-.016h0l-.007-.033h0v0h0l0-.016h0l0-.016h0l0-.016h0v0h0l0-.011h0v0h0l0-.012h0v0h0l0-.012v0h0l0-.016h0l0-.015h0l0-.015h0v0h0l0-.011h0l0-.016h0v0h0l0-.012,0-.008,0-.007h0v0h0v0h0l-.007-.027h0v0h0l0-.011h0v0h0l0-.011h0v0h0v0l0-.006h0v-.007h0l0-.01v0h0l0-.01h0v0h0l0-.01h0v0h0l0-.01h0v0h0v-.04h0v-.03h0v-.018h0v-.037h0v0h0v-.014h0v0h0v0h0v-.009h0v0h0v0h0v0h0v0h0v0h0v0h0v0h0l0-.009h0v0h0v0h0l0-.009h0l-.01-.028h0a4.476,4.476,0,0,0-.379-.828.734.734,0,0,0-1.265.746v0a4.906,4.906,0,0,1,.544,2.069,2.831,2.831,0,0,0,2.835,2.557,2.881,2.881,0,0,0,1.311-.319,12.059,12.059,0,0,0,3.058-2.2l.032-.034.034-.033a8.222,8.222,0,0,0,2.274-4.205,2.957,2.957,0,0,0,.036-.824.734.734,0,0,0-.729-.664Zm0,0" transform="translate(-326.564 -138.782)"/><path class="c" d="M288.222,27.491a15.869,15.869,0,0,0,3.18,2.076,13.811,13.811,0,0,0,5.83.982,1.252,1.252,0,0,0,.888-2.126,13.068,13.068,0,0,0-8.43-3.683c-2.936-.063-2.936,1.405-1.468,2.75Zm0,0" transform="translate(-269.142 -22.71)"/><path class="d" d="M319.5,90.68a.734.734,0,0,0-.374,1.366c.375.222.762.431,1.15.622a14.245,14.245,0,0,0,5.9,1.145c.317,0,.536-.009.621-.013a2.791,2.791,0,0,0,.333-.025,1.681,1.681,0,0,1,.172-.029,2.683,2.683,0,0,0,2.114-2.172.734.734,0,1,0-1.444-.262l0,.01h0v0h0v0h0v0h0v0h0v0h0v0h0v0h0v0h0v0h0v0h0v0h0v0h0v0h0v0h0v0h0v0h0v0h0l-.011.044a1.258,1.258,0,0,1-.3.53h0l0,0,0,0h0l0,0,0,0h0l0,0v0h0l0,0v0l-.012.012h0l0,0h0l0,0,0,0,0,0h0L327.6,92h0l0,0h0l0,0h0l0,0h0l0,0h0l0,0h0l0,0h0l0,0h0l0,0h0l0,0h0l0,0h0l0,0h-.007l-.038.031,0,0,0,0h0l0,0a1.2,1.2,0,0,1-.486.217l-.039.009-.04,0-.081.008h-.1s-.216.012-.577.012a12.931,12.931,0,0,1-5.253-.995l-.009,0-.006,0h0l-.015-.007h0l-.006,0h0l-.016-.008-.009,0-.015-.008-.008,0h0l-.024-.012h0l-.015-.008h0l-.006,0h0l-.016-.008h0l-.007,0h0l-.007,0h0l-.008,0h0l-.007,0h0l-.006,0h0l-.008,0-.007,0h0l-.005,0h0l-.006,0h0l-.005,0h0l0,0,0,0,0,0-.006,0-.01-.005,0,0,0,0-.007,0h0l0,0h0l0,0h0l-.01-.005h0l-.005,0h0l-.005,0h0l-.017-.009h0l-.006,0h0q-.223-.116-.445-.242h0l-.006,0h0l-.006,0h0l-.01-.005h0l0,0-.007,0-.005,0h0l-.007,0h0l-.006,0h0l-.2-.116a.726.726,0,0,0-.371-.1Zm0,0" transform="translate(-298.665 -84.492)"/><path class="c" d="M4.4,93.59h-.42A3.88,3.88,0,0,0,.006,97.519c0,.044.006.087.01.132l-.007,3.7c-.192,2.685,2.111,5.033,5.544,6.174q.4.132.8.261a4.122,4.122,0,0,0,5.391-3.921c0-2.936,0-10.275-7.339-10.275Zm0,0" transform="translate(0 -87.218)"/><path class="c" d="M164.769,54.912a2.759,2.759,0,0,1,.327-1.274,1.475,1.475,0,0,0-.56-1.971,18.329,18.329,0,0,1-2.829-2.079c-.063-.056-.2-.187-.383-.363a5.752,5.752,0,0,0-5.993-1.26,1.845,1.845,0,0,0-.963,3.164c2.356,2.248,2.821,5.826,2.913,8.187a2.456,2.456,0,0,0,1.49,2.336,16.293,16.293,0,0,0,4.4.6q.311,0,.618-.011a2.946,2.946,0,0,0,2.769-3.574,3.328,3.328,0,0,0-.971-1.767,2.793,2.793,0,0,1-.823-1.987Zm0,0" transform="translate(-144.094 -44.137)"/><path class="d" d="M201.063,186.828a.734.734,0,0,0-.617,1.131h0l0,.008,0,0h0v0h0v0h0v0h0l.006.009h0l0,0h0l0,0h0l0,0h0l.008.013h0l0,0h0a3.167,3.167,0,0,1,.264.546h0l.01.027h0v0h0l.007.019h0v0h0v0h0l.005.015h0v0h0v0h0l.005.015h0v0h0v0h0v0h0l0,.015h0v0l0,.006v0h0l0,.01v.009l0,.009v0l0,.006h0v.027h0v.044h0v0h0v0h0v0h0v.014h0v0h0v.013h0v0h0v0h0v0h0v0h0v0h0v0h0l0,.01h0v0h0v.008h0v0h0l0,.01h0v0h0v0h0v0h0v.01h0v0h0v0h0v0h0v0h0l0,.01h0v0h0v0h0v0h0l0,.01h0v0h0v0h0v0h0v0h0l0,.01h0v0h0v.009h0v0h0v.005h0v.026l0,.01v.005h0v0h0v0h0v0h0v0h0v0h0v0h0v0h0v0h0v0h0v0h0v0h0v0h0v0h0v0h0v0h0v0h0v0h0v0h0v0h0v0h0v0h0v0h0v0h0v0h0v0h0v0h0v0h0v0h0v0h0v0h0v0h0v0h0v0h0v0h0v0h0v0h0v0h0v0h0v0h0v0h0v0h0a.04.04,0,0,1,0,0h0v.01h0v0h0v.01h0v.01h0a.034.034,0,0,1,0,0h0a.03.03,0,0,1,0,0h0v.01h0v.005a2.9,2.9,0,0,1-.586,2.118q-.069.09-.144.174l0,0h0l0,0h0l0,0h0l0,0h0l0,0h0l0,0h0l0,0h0l0,0h0l0,0h0l0,0h0l0,0h0l0,0,0,0h0l0,0h0l0,0,0,0h0l0,0h0l0,0h0l0,0h0l0,0,0,0h0l0,0,0,0-.009.009,0,0,0,0v0l0,0,0,0,0,0-.016.016v0l0,0-.005.005,0,0v0l0,0,0,0-.007.007h0l-.009.009h0l0,0,0,0h0l0,0h0l0,0h0l0,0h0l0,0h0l0,0,0,0,0,0h0l0,0h0l0,0h0l0,0h0l0,0h0l0,0h0l0,0h0l0,0h0l0,0h0l-.007.006h0l-.007.007h0l-.007.006h0q-.074.066-.152.128h0l-.008.006h0l-.008.006h0l0,0h0l0,0h0l0,0h0l0,0h0l0,0h0l0,0h0l0,0h0l0,0h0l0,0h0l0,0h0l0,0h0l0,0h0l0,0h0l0,0h0l0,0h0l0,0h0l0,0h0l0,0h0l0,0h0l0,0h0l0,0h0l0,0h0l0,0h0l0,0h0l0,0,0,0h0l0,0,0,0h0l0,0h0l0,0h0l0,0h0l0,0h0l0,0h0l0,0h0l0,0h0l0,0h0l0,0h0l0,0h0l0,0h0l0,0h0l0,0h0l0,0h0l0,0h0l0,0h0l0,0h0l0,0h0l0,0h0l0,0h0l0,0h0l0,0h0l0,0h0l0,0h0l0,0h0l0,0h0l0,0h0l0,0h0l0,0h0l0,0h0l0,0h0l0,0h0l0,0h-.006l0,0h-.038l-.007,0h-.008l0,0h-.032l0,0h0l0,0h0l0,0h0l0,0h0l0,0h0l0,0h0q-.1.053-.2.1h0l0,0a2.925,2.925,0,0,1-.9.248h-.005l-.016,0h-.191q-.307.011-.618.011H196.9l-.051,0h0a16.526,16.526,0,0,1-2.15-.227l-.024,0h0l-.023,0h0l-.011,0h0l-.011,0h0l-.009,0h0l-.011,0h-.014l-.011,0h-.07l-.022,0h0l-.024,0h0l-.177-.035-.04-.007-.039-.009-.183-.039h0l-.008,0h0l-.025-.005h-.034l-.008,0h-.017l-.137-.031h0l-.034-.008h0l-.008,0-.008,0h0l-.017,0h0l-.034-.008h0l-.017,0h0l-.016,0h0l-.186-.047h0l-.008,0-.017,0h0l-.007,0h0l-.006,0h-.045l-.008,0H193.2l-.008,0h-.058l-.005,0-.011,0h-.036l-.023-.008a1.57,1.57,0,0,1-.3-.154h0l-.018-.012-.013-.009-.005,0-.021-.015-.005,0h0l0,0h0l-.005,0h0l0,0,0,0h0l0,0h0l0,0h0l0,0h0l0,0h0l0,0,0,0h0l0,0h0l0,0h0l0,0,0,0h0l0,0h0l0,0h0l0,0h0l0,0h0l0,0h0l0,0H192.6l0,0h0l0,0h-.011l0,0h0l0,0h0l0,0h-.007l0,0h-.01l0,0h0l0,0h-.009l0,0h0l0,0h0l0,0h0l0,0,0,0h0l0,0h0l-.006,0h0l-.005,0h0l0,0h0l-.005,0h0l0,0h0l0,0,0,0h0l0,0h0l0,0-.005,0h0l0,0,0,0h0l-.005,0h0l-.005-.005,0,0-.005,0h0l-.006-.005-.014-.013h0l-.005,0,0,0h0l0,0h0l0,0h0l-.006-.005h0l-.013-.013h0l-.012-.012h0l-.008-.008h0l-.013-.014h0l-.033-.034h0l-.011-.012h0l-.019-.021h0l-.008-.008h0l-.013-.015-.006-.007-.006-.006h0l-.013-.015h0l-.007-.009h0l-.005-.007h0l-.005-.006h0l-.007-.009-.005-.007h0l-.005-.007h0l-.007-.009h0l-.029-.037-.007-.01-.018-.024-.005-.007-.013-.017h0l-.007-.01h0l-.005-.007h0l-.005-.007h0l-.007-.01h0l0-.007h0l0-.007h0l-.007-.01h0l0-.007h0l0-.007,0,0h0l0,0h0v0h0l0-.007,0,0h0l0,0h0l0,0,0-.007h0l0-.007h0v0h0l0,0,0,0h0l0,0v0h0v0h0l0,0h0l0,0,0,0h0v0h0l0-.007h0v0h0l0,0,0,0h0l0,0h0v0h0V191.1h0v0h0l0,0h0v0h0l0,0h0v0h0v0l0,0h0v0h0l0,0v0h0v0l0,0v0h0v0l0,0,0,0,0,0,0,0v0l0,0,0-.005v-.013l0,0v-.014l0,0v0h0v-.011l0,0v0h0v0l0-.008v-.005h0l0,0,0,0h0v0l0,0h0l-.006-.012h0l0-.008v0l0-.009h0l0,0v0h0v0l0,0v0h0v0h0v0h0v0h0l0,0h0v0h0v0h0a.734.734,0,0,0-1.339.6,3.757,3.757,0,0,0,2.2,2.052q.584.165,1.19.29l.043.008.043.01a17.976,17.976,0,0,0,3.527.347q.339,0,.672-.012a4.411,4.411,0,0,0,3.346-1.733,4.359,4.359,0,0,0,.8-3.636,4.92,4.92,0,0,0-.655-1.612.734.734,0,0,0-.618-.337Zm0,0" transform="translate(-178.438 -174.576)"/><path class="e" d="M407.521,162.238a.741.741,0,0,0-.708.525l-.017.058c0,.009-.005.018-.008.027l-.011.031a6.921,6.921,0,0,1-3.353,3.654.734.734,0,0,0,.718,1.28,8.336,8.336,0,0,0,4.032-4.484c0-.011.007-.022.01-.033l.011-.031,0-.01h0l.023-.077h0l0-.011a.728.728,0,0,0-.495-.9A.736.736,0,0,0,407.521,162.238Zm0,0" transform="translate(-377.629 -151.537)"/><path class="e" d="M338.919,64.237v-.005h0l0-.005h0v-.005h0v-.005l0-.011v0c-.015-.032-.031-.063-.049-.094v0h0V64.1h0v0h0v0h0v0h0v0h0v0h0v0h0v0h0v0h0v0h0v0h0v0h0v0h0v0h0v0h0v0h0v0h0v0h0l0,0h0v0h0v0h0v0h0v0h0v0h0v0h0v0h0l0,0h0l0,0,0,0h0l-.029-.041,0,0h0l0,0h0l0,0h0v0h0l0,0h0l0,0h0l0,0h0v0h0v0h0v0h0l0,0h0v0h0v0h0v0h0v0h0v0h0v0h0v0h-.027v0h0l0,0h-.009l0,0v0h-.007v0h0l0,0h0l0,0h0v0h0l0,0,0-.005,0,0,0,0,0,0,0,0,0,0,0,0h0l-.064-.068h0l0-.005,0,0h0l0,0-.04-.041-.019-.019-.024-.026a9.506,9.506,0,0,0-.959-.846h0L337.5,62.8h0l-.018-.014h0l-.018-.014h0l-.008-.006h0l-.017-.013h0l-.008-.006h0l-.009-.007h0l-.007-.005h0l-.008-.006h0l-.007-.005,0,0-.006,0,0,0a.734.734,0,0,0-.875,1.179,8.286,8.286,0,0,1,.771.647h-.065a11.6,11.6,0,0,1-4.607-.845q-.472-.232-.948-.512a.734.734,0,0,0-.759,1.257l.011.007.2.114h0l.006,0h0l.007,0h0l.006,0,0,0,0,0,0,0h0l.01.005h0l.005,0h0l.006,0h0q.223.126.446.242h0l.006,0h0l.017.009h0l.005,0h0l.005,0,.011.005h0l0,0h0l0,0h0l.007,0,0,0,0,0h0l0,0h0l.006,0,0,0h0l0,0h0l.005,0h0l.007,0h0l.005,0h0l.006,0h0l.008,0,.008,0h0l.007,0h0l.008,0h0l.006,0h0l.007,0h0l.016.008h0l.006,0h0l.016.008h0l.024.012h0l.007,0h0l.015.008h0l.006,0h0l.015.008h0l.006,0h0l.015.007h0l.007,0,.007,0a12.932,12.932,0,0,0,5.253.995h.082c.293,0,.472-.011.493-.012h.164l.023,0h.117l.078-.021h0l.008,0,.011,0h0l.011,0h0l.005,0h.005a1.185,1.185,0,0,0,.467-.3l0,0,0,0,0,0,0,0,0,0,0,0h0l0,0,0,0h0l0,0,0,0,0,0h0l0,0h0v0h0v0h0v0h0v0h0l0,0h.009v0h0v0h0v0h0v0l0,0h0v0l0,0h0l0,0h0l.006-.008h0l.013-.016h0v0h0v0h.008v0h.011v0h.014l0,0h0l0-.005h0l0,0v0h0v0h0v0h0v0h0v0h0v0a1.272,1.272,0,0,0,.138-.278v0h0v0h0v0h0v0h0v0h0v0h0v0h0v0h0v0h0v0h0v0h0v0h0v0h0v0h0v0h0v0h0v0h0v0h0v0h0v0h0v0h0v0h0v0h0v0h0v0h0v0h0v0h0v0h0v0h0v0h0v0h0v0h0v0h0v0h0v-.005h0v0h0v0h0v0h0v0h0v0h0v0h0v0h0v0h0v0h0v0h0v0h0v0h0v0h0v0h0v0h0v0h0v0h0v0h0v0h0v0h0v0h0v0h0v0h0v0h0v0h0v0h0v0h0v0h0v0h0v0h0v0h0v0h0v0h0v0h0v0h0v0h0v0h0v0h0v-.005h0c0-.028.008-.055.011-.083s0-.03,0-.045h0a1.255,1.255,0,0,0-.1-.585Zm0,0" transform="translate(-309.694 -58.149)"/><path class="e" d="M216.142,124.586a.759.759,0,0,0-.708.485v.007l0,.005a4.2,4.2,0,0,0-.493,1.951,4.248,4.248,0,0,0,1.252,3.024,1.87,1.87,0,0,1,.578,1.057,1.421,1.421,0,0,1-.268,1.194,1.484,1.484,0,0,1-1.125.586q-.28.01-.564.01a14.739,14.739,0,0,1-3.948-.528,1.126,1.126,0,0,1-.479-1l-.012-.275a.729.729,0,0,0-.729-.7H209.6a.738.738,0,0,0-.7.769c0,.088.008.174.012.259v.03h0v0h0v.024h0v.016h0v.015h0v.012h0v.015h0v0h0a.024.024,0,0,0,0,0v.02h0v.036h0v0h0v.015h0v.016h0v.01h0v.01h0v.025h0v0h0a.031.031,0,0,1,0,0h0v.01h0v.019h0v.006h0v0h0v.012a.022.022,0,0,0,0,0h0v.034h0v0h0v0h0v0h0v0h0v0h0v.006h0v0h0v.006h0v.006h0v0h0v.009h0v0h0v0h0v0h0v0h0v0h0l0,.012h0v0h0v0h0v0h0v0h0v0h0l0,.013v0h0v0h0v0h0l0,.02h0v.006h0v0h0v0h0l0,.02h0v0h0v0h0l0,.019h0v.006h0l0,.023v0h0l.012.051h0a2.525,2.525,0,0,0,.6,1.113v0h0v0h0v0h0l.008.009v0h0v0l0,0h0l.01.01h0l.01.01h.007l0,0,0,0h0l0,0h0l0,0,0,0h0l.007.007h0l0,0h0l.008.008h0l0,0,0,0,0,0h0l0,0,.01.009h0l0,0h0l.008.007h0l0,0,.011.01,0,0h0a1.957,1.957,0,0,0,.6.385h.057a16.292,16.292,0,0,0,4.4.6q.311,0,.618-.011h.191l.016,0h.005a2.923,2.923,0,0,0,.9-.248h0l0,0h0c.067-.031.132-.064.2-.1h0l0,0h0l0,0h0l0,0h.005l0,0h0l0,0h.036l0,0h.011l0,0h.038l0,0h0l0,0h0l0,0h0l0,0h0l0,0h0l0,0h0l0,0h0l0,0h0l0,0h0l0,0h0l0,0h0l0,0h0l0,0h0l0,0h0l0,0h0l0,0h0l0,0h0l0,0h0l0,0h0l0,0h0l0,0h0l0,0h0l0,0h0l0,0h0l0,0h0l0,0h0l0,0h0l0,0h0l0,0h0l0,0h0l0,0h0l0,0h0l0,0h0l0,0h0l0,0h0l0,0h0l0,0,0,0h0l0,0h0l0,0h0l0,0h0l0,0h0l0,0h0l0,0h0l0,0h0l0,0h0l0,0h0l0,0h0l0,0h0l0,0h0l0,0h0l0,0h0l0,0h0l0,0h0l0,0h0l0,0h0l0,0h0l0,0h0l0,0h0l0,0h0l0,0h0l0,0h0l0,0h0l.008-.006h0l.008-.006h0q.078-.061.152-.128h0l.007-.006h0l.007-.006h0l.007-.006h0l0,0h0l0,0h0l0,0h0l0,0h0l0,0h0l0,0h0l0,0,0,0h0l0,0,0,0,0,0,0,0h0l0,0h0l0,0,0,0h0l0,0h0l0,0h0l0,0,0,0,0,0,0,0,0,0,.016-.016,0,0,0,0,0,0,.012-.012,0,0,0,0,0,0h0l0,0,.007-.007v0l.005-.005v0l0,0h0l0,0,0,0,0,0h0l0,0,0,0h0l0,0h0l0,0h0l0,0,0,0h0l0,0h0l0,0h0l0,0h0l0,0h0l0,0h0l0,0h0l0,0h0l0,0h0l0,0h0l0,0h0l0,0,0,0a2.908,2.908,0,0,0,.73-2.292v-.016h0v0h0v0h0v0h0v0h0v-.01h0v-.016h0v0h0v0h0v0h0v0h0v0h0v0h0v0h0v0h0v0h0v0h0v0h0v0h0v0h0v0h0v0h0v0h0v0h0v0h0v0h0v0h0v0h0v0h0v0h0v0h0v0h0v0h0v0h0v0h0v0h0v0h0v0h0v0h0v0h0v0h0v0h0v0h0v0h0v-.01h0v0h0v0h0v0h0V130.8l0-.01a3.33,3.33,0,0,0-.971-1.767,2.793,2.793,0,0,1-.823-1.987,2.755,2.755,0,0,1,.327-1.274c.007-.014.014-.029.021-.043l.011-.021c.013-.028.025-.055.036-.083h0v0l.02-.054h0c.009-.025.016-.049.024-.074a.71.71,0,0,0-.456-.854A.751.751,0,0,0,216.142,124.586Zm0,0" transform="translate(-195.729 -116.26)"/><path class="e" d="M7.227,204.871A2.2,2.2,0,0,0,5.3,208.137a5.862,5.862,0,0,0,.729,1.026h0l.011.012h0l.016.018h0l.011.012h0l.011.012h0l.011.012h0l.016.018h0l.011.012h0l.027.03.011.012h0l.011.012h0l.011.012h0l.005.006h0l.011.012h0l.011.011h0l.011.011h0l.011.011h0l0,.005h0l.005.006.006.006.011.011h0l.005.005h0l.006.006h0l.006.006.005.006.005.005h0l.011.011h0l.011.011h0l.011.011h0l.005.005h0l.011.011h0l.011.011h0l.011.011.006.006h0l.006.006.006.006h0l.011.011h0l.011.011h0l.005,0h0l.006.005.006.006.006.005.006.005h0l.011.011h0l.005.005h0l.006.005h0l0,0h0l.006.005h0l.005.005h0l.011.011h0l.011.011h0l.006.005h0l.006.005h0l.006.005h0l.012.011h0l.012.011h0l.012.011h0l.005.005h0l.012.011h0l.012.011h0l.012.011h0l.006.005.006.005h0l.006.005h0l.012.011h0l.012.011h0l.012.011.006.006h0l.012.011h0l.012.011h0l.012.011h0l.012.011h0l.006.005h0l.013.011h0l.013.011h0l.019.016h0l.013.011h0l.013.011h0l.013.011h0l.02.016h0l.013.011h0l.013.011h0l.033.027h0l.013.01h0l.013.01h0l.013.011.007.005.014.011.013.011h0l.02.016h0l.013.011h0l.013.01H7l.013.01h0l.013.01h0l.006,0h0l.013.01h0l.013.01h0l.013.01.034.027h0a10.621,10.621,0,0,0,2.855,1.518h0l.047.017h0l.018.006h0l.018.007.019.007h0l.009,0h0l.018.006h0l.018.006h0l.008,0h0l.009,0h0l.008,0h0l.009,0h0l.009,0h0l.017.006h0l.008,0h0l.009,0h0l.008,0h0l.009,0h0l.008,0,.01,0h0l.008,0h0l.009,0,.028.01h0l.025.008h0l.024.008h0l.024.008.005,0,.024.008.007,0,.023.008.007,0,.021.007.007,0,.02.007.009,0,.019.006.012,0,.017.006.013,0,.019.006.01,0,.017.006.012,0,.017.005.015,0,.013,0,.017.005.013,0,.017.006.009,0,.019.006.009,0,.028.009h0l.023.007h0l.024.008h0c.6.2,1.212.386,1.818.579l.036.011.038.012.01,0,.068.022a2.2,2.2,0,1,0,1.337-4.2h0l-.078-.025-.039-.012-.039-.013-.5-.16c-.611-.193-1.222-.387-1.83-.589a4.588,4.588,0,0,1-2.5-1.6,2.2,2.2,0,0,0-1.927-1.134Zm0,0" transform="translate(-4.712 -191.481)"/><path class="d" d="M199.366,261.3a1.468,1.468,0,0,0-.473,2.858l.021.007.009,0,.006,0,.005,0,.006,0,.006,0,.007,0,0,0,.007,0h0l.01,0h0l.007,0h0l.01,0h0l.008,0h0l.009,0h0l.011,0h0l.008,0h0l.011,0h0l.009,0h0l.011,0h0l.009,0h0l.022.007h0l.01,0h0l.011,0h0l.01,0h0l.012,0h0l.011,0h0l.023.007h0l.024.008h0l.012,0h0l.024.008h0l.024.008h0l.024.007h0a16.827,16.827,0,0,0,2.1.5l.121.02h0l.027,0h0l.027,0h0l.04.006h0l.026,0h0l.026,0h0l.013,0h0l.026,0h0l.026,0h0l.026,0h0l.012,0h0l.013,0h0l.014,0,.025,0h0l.025,0,.014,0h0l.013,0h0l.012,0h0l.013,0h0l.013,0h0l.026,0h0l.012,0h0l.013,0h.015l.013,0h.015l.025,0h.043l.012,0h.016l.013,0h0l.012,0h0l.012,0h.181l.025,0h.293l.025,0h.072l.026,0h.071l.026,0h0l.026,0h0l.027,0h.014l.027,0h0l.027,0h0l.028,0h.014l.027,0h0l.027,0h0l.028,0q.239.018.481.029h.039l.039,0h.191l.057,0h.777q.225,0,.448-.011a1.468,1.468,0,0,0-.057-2.935h-.055q-.288.011-.58.011-.33,0-.655-.014h-.034l-.034,0a14.272,14.272,0,0,1-3.937-.73,1.465,1.465,0,0,0-.473-.079Zm15.511-3.5a1.466,1.466,0,0,0-1.162.569,7.009,7.009,0,0,1-.693.766l-.021.02-.022.02a10.14,10.14,0,0,1-3.165,1.961,1.468,1.468,0,0,0,1.091,2.726A13.012,13.012,0,0,0,215,261.31l.028-.027.029-.027h0l.008-.008h0l.007-.007h0l.016-.016h0l.016-.016h0l.008-.008h0l.016-.016h0a9.964,9.964,0,0,0,.8-.882h0l.014-.017h0l.007-.008.007-.009h0l.006-.008h0l.013-.017v0l.006-.007h0l.006-.008v0l.005-.007v0l.006-.008,0,0,0-.006,0,0,0-.006,0,0,0-.006,0,0,0-.005,0,0a1.468,1.468,0,0,0-1.16-2.366Zm0,0" transform="translate(-185.418 -241.072)"/><g transform="translate(1.466 3.436)"><path class="f" d="M27.677,118.331c0-.811-.986-1.468-2.2-1.468s-2.2.657-2.2,1.468.986,1.468,2.2,1.468S27.677,119.142,27.677,118.331Zm0,0" transform="translate(-23.273 -112.46)"/><path class="f" d="M117.53,140.429a.64.64,0,1,0,.165,1.025A.753.753,0,0,0,117.53,140.429Zm0,0" transform="translate(-110.495 -134.254)"/><path class="f" d="M190.587,71.784c0-.811-.986-1.468-2.2-1.468s-2.2.657-2.2,1.468.986,1.468,2.2,1.468S190.587,72.6,190.587,71.784Zm0,0" transform="translate(-175.908 -68.849)"/><path class="f" d="M280.742,117.6a.734.734,0,1,1-.734-.734A.734.734,0,0,1,280.742,117.6Zm0,0" transform="translate(-263.127 -112.46)"/><path class="f" d="M327.285,47.781a.734.734,0,1,1-.734-.734A.734.734,0,0,1,327.285,47.781Zm0,0" transform="translate(-306.735 -47.047)"/><path class="f" d="M373.832,164.144a.734.734,0,1,1-.734-.734A.734.734,0,0,1,373.832,164.144Zm0,0" transform="translate(-350.346 -156.071)"/></g></g></svg>