<svg xmlns="http://www.w3.org/2000/svg" xmlns:xlink="http://www.w3.org/1999/xlink" width="23.306" height="44.161" viewBox="0 0 23.306 44.161"><defs><style>.a{fill:url(#a);}.b{fill:url(#b);}.c{fill:url(#c);}.d{fill:url(#d);}.e{fill:url(#e);}.f{fill:url(#f);}.g{fill:url(#g);}.h{fill:url(#h);}.i{fill:url(#i);}.j{fill:url(#m);}.k{fill:url(#n);}</style><linearGradient id="a" y1="0.5" x2="1" y2="0.5" gradientUnits="objectBoundingBox"><stop offset="0" stop-color="#f9f3f1"/><stop offset="0.572" stop-color="#efe2dd"/><stop offset="1" stop-color="#cdbfba"/></linearGradient><linearGradient id="b" x1="-0.298" y1="0.5" x2="1.05" y2="0.5" xlink:href="#a"/><linearGradient id="c" x1="0.064" y1="0.5" x2="0.941" y2="0.5" gradientUnits="objectBoundingBox"><stop offset="0" stop-color="#6bd9e7"/><stop offset="0.572" stop-color="#26a6fe"/><stop offset="1" stop-color="#0172fb"/></linearGradient><linearGradient id="d" x1="-2.441" x2="0.664" xlink:href="#c"/><linearGradient id="e" x1="0.009" y1="0.5" x2="0.935" y2="0.5" gradientUnits="objectBoundingBox"><stop offset="0" stop-color="#fff"/><stop offset="1" stop-color="#f9f3f1"/></linearGradient><linearGradient id="f" x1="0.009" y1="0.5" x2="0.935" y2="0.5" gradientUnits="objectBoundingBox"><stop offset="0" stop-color="#f9f3f1"/><stop offset="1" stop-color="#efe2dd"/></linearGradient><linearGradient id="g" x1="0.053" x2="1.062" xlink:href="#c"/><linearGradient id="h" x1="-4.476" x2="0.221" xlink:href="#c"/><linearGradient id="i" x1="0" y1="0.5" x2="1" y2="0.5" xlink:href="#e"/><linearGradient id="m" x1="-3.212" y1="0.5" x2="0.376" y2="0.5" xlink:href="#f"/><linearGradient id="n" x1="-2.463" y1="0.5" x2="0.288" y2="0.5" xlink:href="#f"/></defs><g transform="translate(-80 -593.529)"><path class="a" d="M138.643,36.035V30.666H125.679v5.369a10.264,10.264,0,0,1-1.206,4.827L123.6,42.5a26.338,26.338,0,0,0-3.094,12.385V68.169a4.005,4.005,0,0,0,4.005,4.005h15.295a4.005,4.005,0,0,0,4.005-4.005V54.883A26.338,26.338,0,0,0,140.72,42.5l-.872-1.636A10.265,10.265,0,0,1,138.643,36.035Z" transform="translate(-40.508 565.516)"/><path class="b" d="M140.721,42.493l-.871-1.635a10.261,10.261,0,0,1-1.205-4.827V30.661H125.679v3.956a2.257,2.257,0,0,0,.561.07h7.6a1.343,1.343,0,0,1,1.343,1.343,10.261,10.261,0,0,0,1.205,4.827l.871,1.635a26.344,26.344,0,0,1,3.094,12.385V64.9H120.509v2.42h19a.847.847,0,0,1,.847.847,4,4,0,0,1-4,4.006h3.463a4,4,0,0,0,4-4.006V54.878A26.345,26.345,0,0,0,140.721,42.493Z" transform="translate(-40.509 565.521)"/><g transform="translate(83.474 593.529)"><path class="c" d="M174.752,4.516H162.91a2.258,2.258,0,0,1,0-4.516h11.842a2.258,2.258,0,0,1,0,4.516Z" transform="translate(-160.652)"/><path class="d" d="M287.041,0h-3.463a2.258,2.258,0,0,1,0,4.516h3.463a2.258,2.258,0,0,0,0-4.516Z" transform="translate(-272.941)"/></g><path class="e" d="M160.074,143.821v11.345a3.421,3.421,0,0,1-3.421,3.421H143.592a3.421,3.421,0,0,1-3.421-3.421V143.821a22.487,22.487,0,0,1,1.057-6.814,6.186,6.186,0,0,1,3.635-3.864,11.011,11.011,0,0,0,3.73-2.457,11.005,11.005,0,0,1,6.809-3.192.233.233,0,0,1,.256.232,8.766,8.766,0,0,0,1.029,4.122l.745,1.4A22.5,22.5,0,0,1,160.074,143.821Z" transform="translate(-58.469 477.067)"/><path class="f" d="M157.432,133.246l-.745-1.4a8.766,8.766,0,0,1-1.029-4.124.232.232,0,0,0-.256-.229,11.078,11.078,0,0,0-1.714.293,10.259,10.259,0,0,0,.658,1.523l.871,1.635a26.344,26.344,0,0,1,3.094,12.385v10.018H140.171v1.817a3.433,3.433,0,0,0,.054.6h17.24a.847.847,0,0,1,.847.847,3.991,3.991,0,0,1-.39,1.726,3.421,3.421,0,0,0,2.152-3.177V143.822A22.5,22.5,0,0,0,157.432,133.246Z" transform="translate(-58.469 477.067)"/><path class="g" d="M120.509,279.41v10.274h23.305V279.41a26.338,26.338,0,0,0-.166-2.947H120.675A26.336,26.336,0,0,0,120.509,279.41Z" transform="translate(-40.509 340.989)"/><path class="h" d="M348.058,279.409v10.274h3.463V279.409a26.332,26.332,0,0,0-.166-2.947h-3.463A26.34,26.34,0,0,1,348.058,279.409Z" transform="translate(-248.216 340.99)"/><g transform="translate(81.701 620.368)"><path class="i" d="M143.7,314.894a.575.575,0,0,1-.521.291.514.514,0,0,1-.491-.291l-.952-1.745v3.86c0,.321-.391.481-.782.481s-.782-.16-.782-.481v-6.066a.724.724,0,0,1,.782-.782c.561,0,.8.06,1.213.782l1.033,1.8,1.033-1.8c.411-.722.652-.782,1.213-.782a.719.719,0,0,1,.782.782v6.066c0,.321-.391.481-.782.481s-.782-.16-.782-.481v-3.76Z" transform="translate(-140.171 -310.162)"/><path class="i" d="M222.671,310.632c0-.331.391-.471.782-.471s.782.14.782.471v6.377c0,.321-.391.481-.782.481s-.782-.16-.782-.481Z" transform="translate(-215.532 -310.161)"/><path class="i" d="M253.942,317.49c-.341,0-.682-.16-.682-.481v-6.377c0-.331.391-.471.782-.471s.782.14.782.471v5.494h2.286c.3,0,.451.341.451.682s-.15.682-.451.682Z" transform="translate(-243.474 -310.161)"/><path class="i" d="M310.266,310.632c0-.331.391-.471.782-.471s.782.14.782.471v2.406l1.875-2.657a.47.47,0,0,1,.411-.221,1,1,0,0,1,.922.8.508.508,0,0,1-.1.3l-1.644,2.065,2.075,3.178a.5.5,0,0,1,.08.261.957.957,0,0,1-.943.782.6.6,0,0,1-.541-.291l-1.715-2.607-.421.541v1.815c0,.321-.391.481-.782.481s-.782-.16-.782-.481v-6.377Z" transform="translate(-295.547 -310.161)"/></g><g transform="translate(99.842 620.368)"><path class="j" d="M351.062,311.265a.508.508,0,0,0,.1-.3,1,1,0,0,0-.922-.8.469.469,0,0,0-.411.221l-.017.024v2.429Z" transform="translate(-349.812 -310.162)"/><path class="k" d="M350.63,357.364a.957.957,0,0,0,.942-.782.5.5,0,0,0-.08-.261l-1.682-2.575v2.9l.278.423A.6.6,0,0,0,350.63,357.364Z" transform="translate(-349.811 -349.975)"/></g></g></svg>