<svg xmlns="http://www.w3.org/2000/svg" width="39.086" height="39.086" viewBox="0 0 39.086 39.086"><defs><style>.a{fill:#02a437;}.b{fill:#027e2a;}.c{fill:#fd9226;}.d{fill:#026a23;}.e{fill:#027226;}.f{fill:#e78244;}.g{fill:#8f6934;}.h{fill:#cbcbcb;}.i{fill:#e82f3e;}.j{fill:#ff6268;}.k{fill:#ea9d2d;}.l{fill:#c38325;}.m{fill:#fbb540;}</style></defs><g transform="translate(-24 -24)"><path class="a" d="M31.129,140.228a3.371,3.371,0,0,0-5.78,2.256,2.7,2.7,0,1,0,3.806,3.441,3.373,3.373,0,0,0,1.505-.587,2.7,2.7,0,1,0,.469-5.109Z" transform="translate(-0.001 -105.508)"/><path class="b" d="M73.9,175.7a.674.674,0,0,1-.628-.429l-1.225-3.139a.674.674,0,0,1,1.256-.49l1.225,3.139a.674.674,0,0,1-.628.919Z" transform="translate(-43.956 -134.813)"/><path class="b" d="M102.123,175.543l-.062,0a.674.674,0,0,1-.609-.733,5.226,5.226,0,0,1,1.32-3.009.674.674,0,1,1,1,.9,3.871,3.871,0,0,0-.977,2.228A.674.674,0,0,1,102.123,175.543Z" transform="translate(-70.925 -135.145)"/><path class="b" d="M43.847,203.162a.672.672,0,0,1-.452-.174,3.87,3.87,0,0,0-2.228-.977.674.674,0,1,1,.123-1.342,5.228,5.228,0,0,1,3.008,1.319.674.674,0,0,1-.452,1.174Z" transform="translate(-15.16 -161.784)"/><path class="c" d="M76.9,226.566l-5.022,1.96-4.841-9.7a3.692,3.692,0,1,1,6.851-2.674Z" transform="translate(-39.054 -173.521)"/><path class="d" d="M272,24h2.7V42.869H272Z" transform="translate(-227.109 0)"/><path class="e" d="M229.316,88.924A5.814,5.814,0,0,0,229,87.739L226.022,80,224,80.674l2.887,7.506a7.239,7.239,0,0,1,.483,2.6v2.392Z" transform="translate(-183.152 -51.283)"/><path class="b" d="M253.9,100.7a2.563,2.563,0,0,1,0,3.075l-.009.013a2.864,2.864,0,0,1-2.291,1.146H250.42a2.864,2.864,0,0,1-2.291-1.146l-.009-.013a2.562,2.562,0,0,1,0-3.075l.868-1.158V93.171l1.947-4.247.075-.163L254.38,80l2.022.674-2.887,7.506a7.24,7.24,0,0,0-.483,2.6v8.763Z" transform="translate(-204.771 -51.283)"/><path class="b" d="M253.9,220.966l-.009.013a2.854,2.854,0,0,1-1.085.879l-4.029-.252a2.838,2.838,0,0,1-.648-.627l-.009-.013a2.562,2.562,0,0,1,0-3.075l.06-.08.809-.4,4.043-9.437v8.763l.868,1.158a2.563,2.563,0,0,1,0,3.075Z" transform="translate(-204.771 -168.473)"/><g transform="translate(28.089 43.827)"><path class="f" d="M73.214,278.661a.674.674,0,0,1-.245-1.3l1.256-.49a.674.674,0,0,1,.49,1.256l-1.255.49A.674.674,0,0,1,73.214,278.661Z" transform="translate(-72.539 -275.353)"/><path class="f" d="M117.931,261.211a.674.674,0,0,1-.245-1.3l1.256-.49a.674.674,0,1,1,.49,1.256l-1.255.49A.674.674,0,0,1,117.931,261.211Z" transform="translate(-113.49 -259.373)"/><path class="f" d="M86.075,305.745a.674.674,0,0,1-.245-1.3l1.78-.674a.674.674,0,1,1,.49,1.256l-1.78.674A.674.674,0,0,1,86.075,305.745Z" transform="translate(-84.317 -299.987)"/><path class="f" d="M137.018,290.78a.674.674,0,0,1-.245-1.3l.628-.245a.674.674,0,1,1,.49,1.256l-.628.245A.674.674,0,0,1,137.018,290.78Z" transform="translate(-130.969 -286.675)"/></g><path class="a" d="M189,200h1.6a2.864,2.864,0,0,1,2.562,1.584l.556,1.112h-1.6a2.864,2.864,0,0,1-2.562-1.583Z" transform="translate(-151.101 -161.174)"/><path class="g" d="M220.307,219.39a.674.674,0,0,1-.674-.674,4.8,4.8,0,0,1,3.846-4.691l.066-.013a.674.674,0,0,1,.264,1.322l-.065.013a3.445,3.445,0,0,0-2.762,3.37A.674.674,0,0,1,220.307,219.39Z" transform="translate(-179.153 -173.993)"/><path class="h" d="M253.9,220.966l-.009.013a2.854,2.854,0,0,1-1.085.879l-4.029-.252a2.838,2.838,0,0,1-.648-.627l-.009-.013a2.562,2.562,0,0,1,0-3.075l.06-.08.809-.4,4.043-9.437v8.763l.868,1.158a2.563,2.563,0,0,1,0,3.075Z" transform="translate(-204.771 -168.473)"/><path class="i" d="M169.938,254a1.99,1.99,0,0,1,1.656.886.91.91,0,0,0,1.514,0,1.99,1.99,0,0,1,3.21-.139l.158.2A4.38,4.38,0,0,1,176.77,260l-1.315,2.1a1.392,1.392,0,0,1-2.164.246,1.33,1.33,0,0,0-1.88,0,1.392,1.392,0,0,1-2.164-.247l-1.315-2.1a4.38,4.38,0,0,1,.294-5.058l.158-.2A1.99,1.99,0,0,1,169.938,254Z" transform="translate(-131.198 -210.625)"/><path class="j" d="M193.054,283.365a.672.672,0,0,1-.477-.2,1.994,1.994,0,0,1-.374-2.3l.248-.5a.674.674,0,1,1,1.205.6l-.248.5a.647.647,0,0,0,.121.748.674.674,0,0,1-.476,1.151Z" transform="translate(-153.84 -234.431)"/><path class="k" d="M24,392H63.086v4.043H24Z" transform="translate(0 -337.001)"/><path class="l" d="M50.022,409.348H48.674a.674.674,0,0,1,0-1.348h1.348a.674.674,0,0,1,0,1.348Z" transform="translate(-21.978 -351.653)"/><path class="l" d="M434.022,409.348h-1.348a.674.674,0,0,1,0-1.348h1.348a.674.674,0,0,1,0,1.348Z" transform="translate(-373.631 -351.653)"/><path class="m" d="M24,440H63.086v4.043H24Z" transform="translate(0 -380.957)"/><g transform="translate(26.022 56.347)"><path class="l" d="M50.022,457.348H48.674a.674.674,0,0,1,0-1.348h1.348a.674.674,0,0,1,0,1.348Z" transform="translate(-48 -451.957)"/><path class="l" d="M242.022,409.348h-1.348a.674.674,0,0,1,0-1.348h1.348a.674.674,0,0,1,0,1.348Z" transform="translate(-223.826 -408)"/><path class="l" d="M242.022,457.348h-1.348a.674.674,0,0,1,0-1.348h1.348a.674.674,0,0,1,0,1.348Z" transform="translate(-223.826 -451.957)"/><path class="l" d="M434.022,457.348h-1.348a.674.674,0,0,1,0-1.348h1.348a.674.674,0,0,1,0,1.348Z" transform="translate(-399.653 -451.957)"/></g><path class="b" d="M352,288.674l.592.592a4.881,4.881,0,0,1,1.43,3.451h2.022v-.674a4.881,4.881,0,0,0-1.43-3.451l-.592-.592Z" transform="translate(-300.37 -241.761)"/><path class="b" d="M404.043,288.674l-.592.592a4.881,4.881,0,0,0-1.43,3.451H400v-.674a4.881,4.881,0,0,1,1.43-3.451l.592-.592Z" transform="translate(-344.327 -241.761)"/><path class="a" d="M323.165,151.581a2.522,2.522,0,0,0-.911-1.943,2.526,2.526,0,0,0-2.29-3.105,5.053,5.053,0,0,0-8.76,0,2.526,2.526,0,0,0-2.29,3.105,2.526,2.526,0,0,0-.339,3.543,3.37,3.37,0,0,0,5.034,4.26,4.19,4.19,0,0,0,1.975-.806,4.19,4.19,0,0,0,1.975.806,3.369,3.369,0,0,0,5.034-4.26A2.516,2.516,0,0,0,323.165,151.581Z" transform="translate(-260.078 -109.891)"/><path class="b" d="M371.851,170.694a.674.674,0,0,1-.635-.449,1.349,1.349,0,0,0-2.542,0,.674.674,0,1,1-1.271-.449,2.7,2.7,0,0,1,5.084,0,.674.674,0,0,1-.635.9Z" transform="translate(-314.439 -131.868)"/><path class="b" d="M336.022,212.043a2.022,2.022,0,1,1,0-4.043.674.674,0,0,1,0,1.348.674.674,0,1,0,0,1.348.674.674,0,1,1,0,1.348Z" transform="translate(-283.886 -168.5)"/><path class="m" d="M24,344H63.086v4.043H24Z" transform="translate(0 -293.044)"/><path class="l" d="M50.022,361.348H48.674a.674.674,0,0,1,0-1.348h1.348a.674.674,0,0,1,0,1.348Z" transform="translate(-21.978 -307.696)"/><path class="l" d="M434.022,361.348h-1.348a.674.674,0,0,1,0-1.348h1.348a.674.674,0,0,1,0,1.348Z" transform="translate(-373.631 -307.696)"/><path class="l" d="M242.022,361.348h-1.348a.674.674,0,0,1,0-1.348h1.348a.674.674,0,0,1,0,1.348Z" transform="translate(-197.805 -307.696)"/></g></svg>