<svg xmlns="http://www.w3.org/2000/svg" xmlns:xlink="http://www.w3.org/1999/xlink" width="30.581" height="34.792" viewBox="0 0 30.581 34.792"><defs><style>.a{fill:url(#a);}.b{fill:url(#b);}</style><linearGradient id="a" x1="0.5" y1="1" x2="0.5" gradientUnits="objectBoundingBox"><stop offset="0" stop-color="#5558ff"/><stop offset="1" stop-color="#00c0ff"/></linearGradient><linearGradient id="b" x1="0.5" y1="1" x2="0.5" gradientUnits="objectBoundingBox"><stop offset="0" stop-color="#addcff"/><stop offset="0.503" stop-color="#eaf6ff"/><stop offset="1" stop-color="#eaf6ff"/></linearGradient></defs><g transform="translate(-30.981)"><g transform="translate(30.981)"><path class="a" d="M42.413,10.261h-8.3L31.056,12.3a7.094,7.094,0,0,0-.075.722V28.608l2.741,2.107h8.836l2.693-2.107V13.021a7.093,7.093,0,0,0-.075-.722Zm17.76,10.193a15.746,15.746,0,0,1-5.4-.958,17.273,17.273,0,0,0-6.2-1.08l-1.1,2.039.714,11.463a3.074,3.074,0,0,0,3.058,2.874H57.6a3.074,3.074,0,0,0,3.058-2.874l.591-9.425ZM35.058,4.077,36.619,5.1h2.656l1.9-1.019a1.019,1.019,0,0,0,1.019-1.019V1.019A1.019,1.019,0,0,0,41.174,0H35.058a1.019,1.019,0,0,0-1.019,1.019V3.058A1.019,1.019,0,0,0,35.058,4.077Z" transform="translate(-30.981)"/></g><g transform="translate(30.981 4.077)"><path class="b" d="M37.277,72.739c-.667.967-2.219,3.354-2.219,4.656a3.058,3.058,0,1,0,6.116,0c0-1.3-1.552-3.69-2.219-4.656A1.058,1.058,0,0,0,37.277,72.739Zm24-.114a.987.987,0,0,0-.734-.326H48.309a.987.987,0,0,0-.734.326.953.953,0,0,0-.285.754l.184,3h1.1a17.273,17.273,0,0,1,6.2,1.08,15.746,15.746,0,0,0,5.4.958h1.08l.306-5.035A.953.953,0,0,0,61.274,72.625ZM30.981,87.657a3.061,3.061,0,0,0,3.058,3.058h8.154a3.061,3.061,0,0,0,3.058-3.058V84.531H30.981ZM41.174,62.428V60H35.058v2.428a7.477,7.477,0,0,0-4,5.794H45.176A7.488,7.488,0,0,0,41.174,62.428Z" transform="translate(-30.981 -60)"/></g></g></svg>